<svg width="35" height="35" viewBox="0 0 35 35" fill="none" xmlns="http://www.w3.org/2000/svg">
<circle cx="17.5" cy="17.5" r="17.5" fill="#FCFCFC"/>
<path d="M7.93059 21.1111L6.61114 26.8056C6.56563 27.0137 6.56719 27.2294 6.61571 27.4369C6.66423 27.6444 6.75849 27.8384 6.8916 28.0048C7.02472 28.1712 7.19331 28.3057 7.38509 28.3986C7.57686 28.4915 7.78696 28.5404 8.00003 28.5417C8.09932 28.5517 8.19936 28.5517 8.29864 28.5417L14.0278 27.2222L25.0278 16.2639L18.8889 10.1389L7.93059 21.1111Z" fill="#FC7900"/>
<path d="M28.4862 10.7778L24.3889 6.68055C24.1196 6.41254 23.755 6.26208 23.375 6.26208C22.9951 6.26208 22.6305 6.41254 22.3612 6.68055L20.0834 8.95833L26.2153 15.0903L28.4931 12.8125C28.6264 12.6785 28.732 12.5196 28.8038 12.3448C28.8756 12.1699 28.9122 11.9827 28.9116 11.7937C28.9109 11.6047 28.873 11.4177 28.8 11.2434C28.727 11.069 28.6204 10.9108 28.4862 10.7778Z" fill="#FC7900"/>
</svg>
