<svg width="17" height="17" viewBox="0 0 17 17" fill="none" xmlns="http://www.w3.org/2000/svg">
<path d="M1.99267 10.9556L1.09545 14.8278C1.0645 14.9693 1.06556 15.116 1.09856 15.2571C1.13155 15.3982 1.19565 15.5301 1.28616 15.6433C1.37668 15.7564 1.49133 15.8479 1.62173 15.9111C1.75214 15.9742 1.895 16.0075 2.0399 16.0083C2.10741 16.0152 2.17544 16.0152 2.24295 16.0083L6.13878 15.1111L13.6188 7.65945L9.44434 3.49445L1.99267 10.9556Z" fill="#FC7900"/>
<path d="M15.9705 3.92888L13.1844 1.14277C13.0012 0.960523 12.7533 0.858215 12.4949 0.858215C12.2365 0.858215 11.9887 0.960523 11.8055 1.14277L10.2566 2.69166L14.4263 6.86138L15.9752 5.31249C16.0658 5.22139 16.1376 5.11331 16.1865 4.99443C16.2353 4.87556 16.2602 4.74822 16.2598 4.61971C16.2593 4.4912 16.2335 4.36403 16.1839 4.24549C16.1343 4.12695 16.0617 4.01936 15.9705 3.92888Z" fill="#FC7900"/>
</svg>
