<svg width="35" height="35" viewBox="0 0 35 35" fill="none" xmlns="http://www.w3.org/2000/svg">
<circle cx="17.5" cy="17.5" r="17.5" fill="#FCFCFC"/>
<path d="M8.74998 12.9773C8.74998 15.3048 10.5058 17.0607 12.8333 17.0607C15.1608 17.0607 16.9166 15.3048 16.9166 12.9773C16.9166 10.6498 15.1608 8.89401 12.8333 8.89401C10.5058 8.89401 8.74998 10.6498 8.74998 12.9773ZM25.6666 12.3333H23.3333V15.8333H19.8333V18.1667H23.3333V21.6667H25.6666V18.1667H29.1666V15.8333H25.6666V12.3333ZM8.16665 25.1667H19.8333V24C19.8333 20.7835 17.2165 18.1667 14 18.1667H11.6666C8.45015 18.1667 5.83331 20.7835 5.83331 24V25.1667H8.16665Z" fill="#FC7900"/>
</svg>
