<svg width="11" height="21" viewBox="0 0 11 21" fill="none" xmlns="http://www.w3.org/2000/svg">
<path d="M9.16876 20.7083C8.9509 20.7091 8.73563 20.661 8.53879 20.5676C8.34194 20.4743 8.16852 20.338 8.03126 20.1688L0.987515 11.4188C0.773021 11.1578 0.655762 10.8305 0.655762 10.4927C0.655762 10.1549 0.773021 9.82763 0.987515 9.56668L8.27918 0.816682C8.52672 0.518866 8.88242 0.331581 9.26804 0.296027C9.65366 0.260473 10.0376 0.379563 10.3354 0.627099C10.6332 0.874634 10.8205 1.23034 10.8561 1.61596C10.8916 2.00158 10.7725 2.38553 10.525 2.68335L4.00626 10.5L10.3063 18.3167C10.4846 18.5307 10.5979 18.7914 10.6327 19.0678C10.6675 19.3443 10.6224 19.6249 10.5028 19.8765C10.3831 20.1281 10.1939 20.3401 9.95746 20.4876C9.72105 20.635 9.44736 20.7116 9.16876 20.7083Z" fill="white"/>
</svg>
