<svg width="25" height="25" viewBox="0 0 25 25" fill="none" xmlns="http://www.w3.org/2000/svg">
<path d="M10.2679 5.35715H14.7322C14.7322 4.76515 14.497 4.19739 14.0784 3.77879C13.6598 3.36018 13.092 3.12501 12.5 3.12501C11.908 3.12501 11.3403 3.36018 10.9217 3.77879C10.503 4.19739 10.2679 4.76515 10.2679 5.35715ZM8.92859 5.35715C8.92859 4.40995 9.30486 3.50154 9.97464 2.83177C10.6444 2.162 11.5528 1.78572 12.5 1.78572C13.4472 1.78572 14.3556 2.162 15.0254 2.83177C15.6952 3.50154 16.0714 4.40995 16.0714 5.35715H21.6518C21.8294 5.35715 21.9997 5.4277 22.1253 5.55328C22.2509 5.67887 22.3214 5.84919 22.3214 6.02679C22.3214 6.20439 22.2509 6.37472 22.1253 6.5003C21.9997 6.62588 21.8294 6.69643 21.6518 6.69643H20.4822L19.3956 19.7348C19.3165 20.6833 18.8839 21.5675 18.1835 22.212C17.4831 22.8565 16.5661 23.2142 15.6143 23.2143H9.38573C8.43394 23.2142 7.51693 22.8565 6.81654 22.212C6.11615 21.5675 5.68354 20.6833 5.60448 19.7348L4.51787 6.69643H3.34823C3.17063 6.69643 3.00031 6.62588 2.87472 6.5003C2.74914 6.37472 2.67859 6.20439 2.67859 6.02679C2.67859 5.84919 2.74914 5.67887 2.87472 5.55328C3.00031 5.4277 3.17063 5.35715 3.34823 5.35715H8.92859ZM11.1607 10.4911C11.1607 10.3135 11.0902 10.1432 10.9646 10.0176C10.839 9.89199 10.6687 9.82143 10.4911 9.82143C10.3135 9.82143 10.1432 9.89199 10.0176 10.0176C9.892 10.1432 9.82145 10.3135 9.82145 10.4911V18.0804C9.82145 18.258 9.892 18.4283 10.0176 18.5539C10.1432 18.6795 10.3135 18.75 10.4911 18.75C10.6687 18.75 10.839 18.6795 10.9646 18.5539C11.0902 18.4283 11.1607 18.258 11.1607 18.0804V10.4911ZM14.5089 9.82143C14.3313 9.82143 14.161 9.89199 14.0354 10.0176C13.9099 10.1432 13.8393 10.3135 13.8393 10.4911V18.0804C13.8393 18.258 13.9099 18.4283 14.0354 18.5539C14.161 18.6795 14.3313 18.75 14.5089 18.75C14.6865 18.75 14.8569 18.6795 14.9825 18.5539C15.108 18.4283 15.1786 18.258 15.1786 18.0804V10.4911C15.1786 10.3135 15.108 10.1432 14.9825 10.0176C14.8569 9.89199 14.6865 9.82143 14.5089 9.82143Z" fill="#F34D4D"/>
</svg>
